<svg xmlns="http://www.w3.org/2000/svg" width="320.588" height="107.223" viewBox="0 0 320.588 107.223">
  <path id="Subtraction_46" data-name="Subtraction 46" d="M-2035.625-2293.959c-.428,0-.868,0-1.307-.013l-206.506-4a66.366,66.366,0,0,1-16.995-2.537h-.005a64.263,64.263,0,0,1-13.283-5.478,62.392,62.392,0,0,1-11.292-7.962,56.473,56.473,0,0,1-15.1-21.251c-5.321-13.472-4.268-27.55,2.966-39.639l15.763-26.341h66.552a46.436,46.436,0,0,0,3.333,17.064c6.5,16.48,21.336,29.461,39.7,34.725a66.329,66.329,0,0,0,17,2.538l4.647.09c.418.008.841.012,1.257.012,20.73,0,38.975-10.08,47.615-26.307a43.768,43.768,0,0,0,4.514-28.122h82.055l22.568,32.251a53.273,53.273,0,0,1,6.533,12.489,46.239,46.239,0,0,1,2.654,12.62,43.811,43.811,0,0,1-.92,12.237,44.258,44.258,0,0,1-4.185,11.341,47.953,47.953,0,0,1-18.979,19.149,54.594,54.594,0,0,1-13.776,5.4A62.318,62.318,0,0,1-2035.625-2293.959Z" transform="translate(2303.462 2401.182)" fill="#fff"/>
</svg>
