<svg xmlns="http://www.w3.org/2000/svg" width="285" height="285" viewBox="0 0 285 285">
  <path id="Subtraction_2" data-name="Subtraction 2" d="M119.5,422a143.552,143.552,0,0,1-28.719-2.9,141.72,141.72,0,0,1-50.954-21.442,142.915,142.915,0,0,1-51.629-62.7,141.778,141.778,0,0,1-8.3-26.749,143.889,143.889,0,0,1,0-57.438A141.721,141.721,0,0,1,1.336,199.827a142.917,142.917,0,0,1,62.7-51.629,141.784,141.784,0,0,1,26.749-8.3,143.89,143.89,0,0,1,57.438,0,141.719,141.719,0,0,1,50.954,21.442,142.915,142.915,0,0,1,51.628,62.7,141.781,141.781,0,0,1,8.3,26.749,143.892,143.892,0,0,1,0,57.438,141.722,141.722,0,0,1-21.442,50.954,142.915,142.915,0,0,1-62.7,51.628,141.781,141.781,0,0,1-26.749,8.3A143.552,143.552,0,0,1,119.5,422Zm0-166.536a66.958,66.958,0,1,0,66.958,66.957A67.034,67.034,0,0,0,119.5,255.464Z" transform="translate(23 -137)" fill="#2c97df" opacity="0.1"/>
</svg>
