<svg xmlns="http://www.w3.org/2000/svg" width="420.444" height="422.995" viewBox="0 0 420.444 422.995">
  <path id="Subtraction_21" data-name="Subtraction 21" d="M49.852,331.162a48.93,48.93,0,0,1-11.391-1.346,49.6,49.6,0,0,1-10.525-3.829A50.763,50.763,0,0,1,5.055,303.026,49.249,49.249,0,0,1,1.333,269.85L54.7,38.786a50.252,50.252,0,0,1,6.924-16.32,48.974,48.974,0,0,1,11.4-12.193A50.826,50.826,0,0,1,103.623,0a49.06,49.06,0,0,1,17.7,3.275,50.072,50.072,0,0,1,16.191,10.192L310.97,175.184a50.83,50.83,0,0,1,8.756,10.7,48.907,48.907,0,0,1,5.254,11.976,50.586,50.586,0,0,1-10.956,47.468,48.905,48.905,0,0,1-9.972,8.461,50.828,50.828,0,0,1-12.56,5.78L64.669,328.917A50.662,50.662,0,0,1,49.852,331.162ZM130.719,121.08h0a49.916,49.916,0,0,0-48.935,38.838l-5.222,22.721A50.061,50.061,0,0,0,125.1,243.9a50.659,50.659,0,0,0,14.815-2.245l22.257-6.8a50,50,0,0,0,19.517-84.35L164.65,134.585a49.593,49.593,0,0,0-33.927-13.5Z" transform="translate(307.181 422.995) rotate(-160)" fill="#d2fbd4" opacity="0.5"/>
</svg>
