<svg xmlns="http://www.w3.org/2000/svg" width="196.998" height="196.976" viewBox="0 0 196.998 196.976">
  <path id="Subtraction_5" data-name="Subtraction 5" d="M86.5,436.977a99.223,99.223,0,0,1-19.851-2,97.96,97.96,0,0,1-35.221-14.821A98.791,98.791,0,0,1-4.26,376.819,98.013,98.013,0,0,1-10,358.33a99.473,99.473,0,0,1-.047-39.474A97.927,97.927,0,0,1,4.446,283.968a98.8,98.8,0,0,1,42.459-35.707,97.978,97.978,0,0,1,18.151-5.94A98.976,98.976,0,0,1,84.569,240v20.681a78.225,78.225,0,0,0-13.717,1.554,77.23,77.23,0,0,0-27.762,11.682A77.86,77.86,0,0,0,14.96,308.076a77.205,77.205,0,0,0-4.524,14.574,78.416,78.416,0,0,0,0,31.294,77.222,77.222,0,0,0,11.682,27.762,77.861,77.861,0,0,0,34.16,28.129,77.217,77.217,0,0,0,14.574,4.524,78.389,78.389,0,0,0,31.3,0,77.23,77.23,0,0,0,27.762-11.682,77.872,77.872,0,0,0,28.13-34.159,77.278,77.278,0,0,0,4.524-14.574,78.165,78.165,0,0,0,1.576-15.078H185a99.164,99.164,0,0,1-2.066,19.783,97.951,97.951,0,0,1-14.881,35.088,98.791,98.791,0,0,1-43.294,35.536,98.025,98.025,0,0,1-18.451,5.713A99.24,99.24,0,0,1,86.5,436.977Zm0-62.2A36.49,36.49,0,0,1,71.06,305.245a36.113,36.113,0,0,1,13.508-3.379v37h38.408A36.48,36.48,0,0,1,86.5,374.778Z" transform="translate(184.998 436.977) rotate(180)" fill="#cc607c" opacity="0.1"/>
</svg>
