<svg xmlns="http://www.w3.org/2000/svg" width="40" height="37.419" viewBox="0 0 40 37.419">
  <g id="manufacture" transform="translate(0 1.168)">
    <path id="Path_189" data-name="Path 189" d="M.653,15.148H4.273a9.706,9.706,0,0,0,.919,2.211L2.63,19.921a.653.653,0,0,0,0,.923L5.4,23.614a.653.653,0,0,0,.923,0l2.563-2.563a9.7,9.7,0,0,0,2.211.919V25.59a.653.653,0,0,0,.653.653h3.916a.653.653,0,0,0,.653-.653V21.97a9.7,9.7,0,0,0,2.211-.919l2.563,2.563a.672.672,0,0,0,.923,0l2.769-2.769a.653.653,0,0,0,0-.923l-2.563-2.562a9.706,9.706,0,0,0,.919-2.211h3.621a.653.653,0,0,0,.653-.653V10.58a.653.653,0,0,0-.653-.653H23.138a9.709,9.709,0,0,0-.919-2.211l2.563-2.562a.653.653,0,0,0,0-.923L22.012,1.461a.653.653,0,0,0-.923,0L18.527,4.025a9.727,9.727,0,0,0-2.211-.919V-.515a.653.653,0,0,0-.653-.653H11.748a.653.653,0,0,0-.653.653V3.106a9.728,9.728,0,0,0-2.211.919L6.321,1.461a.672.672,0,0,0-.923,0L2.629,4.231a.653.653,0,0,0,0,.923L5.193,7.716a9.709,9.709,0,0,0-.919,2.211H.653A.653.653,0,0,0,0,10.58V14.5a.653.653,0,0,0,.653.653Zm.653-3.916H4.784a.653.653,0,0,0,.638-.513,8.4,8.4,0,0,1,1.143-2.75.653.653,0,0,0-.088-.814L4.014,4.692,5.86,2.846,8.322,5.309a.653.653,0,0,0,.815.088,8.41,8.41,0,0,1,2.75-1.143.653.653,0,0,0,.513-.638V.137h2.611V3.616a.653.653,0,0,0,.513.638A8.41,8.41,0,0,1,18.274,5.4a.653.653,0,0,0,.815-.088l2.462-2.463L23.4,4.692,20.934,7.155a.653.653,0,0,0-.088.815,8.394,8.394,0,0,1,1.143,2.751.653.653,0,0,0,.638.513h3.479v2.611H22.626a.653.653,0,0,0-.638.513,8.387,8.387,0,0,1-1.143,2.75.653.653,0,0,0,.088.814L23.4,20.383,21.551,22.23l-2.462-2.463a.653.653,0,0,0-.815-.088,8.39,8.39,0,0,1-2.75,1.143.653.653,0,0,0-.514.638v3.479H12.4V21.459a.653.653,0,0,0-.514-.638,8.39,8.39,0,0,1-2.75-1.143.653.653,0,0,0-.815.088L5.86,22.23,4.014,20.383l2.462-2.462a.653.653,0,0,0,.088-.815,8.4,8.4,0,0,1-1.143-2.751.652.652,0,0,0-.638-.512H1.305Zm0,0" fill="#fff"/>
    <path id="Path_190" data-name="Path 190" d="M135.221,139.274A5.221,5.221,0,1,0,130,134.053,5.221,5.221,0,0,0,135.221,139.274Zm0-9.137a3.916,3.916,0,1,1-3.916,3.916A3.916,3.916,0,0,1,135.221,130.137Zm0,0" transform="translate(-121.647 -121.65)" fill="#fff"/>
    <path id="Path_191" data-name="Path 191" d="M107.179,113.19A7.179,7.179,0,1,0,100,106.011,7.179,7.179,0,0,0,107.179,113.19Zm0-13.053a5.874,5.874,0,1,1-5.874,5.874A5.874,5.874,0,0,1,107.179,100.137Zm0,0" transform="translate(-93.59 -93.594)" fill="#fff"/>
    <path id="Path_192" data-name="Path 192" d="M36.774,290.58v-5.221a.649.649,0,0,0-.645-.653h-1.29v-5.221a.649.649,0,0,0-.645-.653H28.387a.649.649,0,0,0-.645.653v5.221H24.516a.649.649,0,0,0-.645.653v5.221H3.226A3.249,3.249,0,0,0,0,293.843v1.305a3.248,3.248,0,0,0,3.226,3.263H36.774A3.248,3.248,0,0,0,40,295.148v-1.305A3.249,3.249,0,0,0,36.774,290.58Zm-1.29,0H30.968v-4.569h4.516Zm-6.452-10.442h4.516v4.569H29.032Zm-3.871,5.874h4.516v4.569H25.161Zm13.548,9.137a1.947,1.947,0,0,1-1.935,1.958H3.226a1.947,1.947,0,0,1-1.935-1.958v-1.305a1.947,1.947,0,0,1,1.935-1.958H36.774a1.947,1.947,0,0,1,1.935,1.958Zm0,0" transform="translate(0 -262.16)" fill="#fff"/>
    <path id="Path_193" data-name="Path 193" d="M281.958,488.832a1.958,1.958,0,1,0,1.958,1.958A1.958,1.958,0,0,0,281.958,488.832Zm0,2.611a.653.653,0,1,1,.653-.653A.653.653,0,0,1,281.958,491.443Zm0,0" transform="translate(-261.958 -458.454)" fill="#fff"/>
    <path id="Path_194" data-name="Path 194" d="M181.958,488.832a1.958,1.958,0,1,0,1.958,1.958A1.958,1.958,0,0,0,181.958,488.832Zm0,2.611a.653.653,0,1,1,.653-.653A.653.653,0,0,1,181.958,491.443Zm0,0" transform="translate(-168.402 -458.454)" fill="#fff"/>
    <path id="Path_195" data-name="Path 195" d="M381.958,488.832a1.958,1.958,0,1,0,1.958,1.958A1.958,1.958,0,0,0,381.958,488.832Zm0,2.611a.653.653,0,1,1,.653-.653A.653.653,0,0,1,381.958,491.443Zm0,0" transform="translate(-355.514 -458.454)" fill="#fff"/>
    <path id="Path_196" data-name="Path 196" d="M81.958,488.832a1.958,1.958,0,1,0,1.958,1.958A1.958,1.958,0,0,0,81.958,488.832Zm0,2.611a.653.653,0,1,1,.653-.653A.653.653,0,0,1,81.958,491.443Zm0,0" transform="translate(-74.779 -458.454)" fill="#fff"/>
    <path id="Path_197" data-name="Path 197" d="M481.958,488.832a1.958,1.958,0,1,0,1.958,1.958A1.958,1.958,0,0,0,481.958,488.832Zm0,2.611a.653.653,0,1,1,.653-.653A.653.653,0,0,1,481.958,491.443Zm0,0" transform="translate(-449.137 -458.454)" fill="#fff"/>
  </g>
</svg>
