<svg xmlns="http://www.w3.org/2000/svg" width="40" height="38.012" viewBox="0 0 40 38.012">
  <path id="package_1_" data-name="package (1)" d="M41.66,28.215A2.664,2.664,0,0,0,40.2,26.678V8.013A2.019,2.019,0,0,0,38.184,6H16.707a2.019,2.019,0,0,0-2.013,2.013V26.826a13.6,13.6,0,0,0-2.175,1.242l-2.107,1.477-.772-1.1a.676.676,0,0,0-.933-.168l-6.6,4.617a.683.683,0,0,0-.168.94l6.933,9.893a.671.671,0,0,0,.933.168l6.6-4.617a.684.684,0,0,0,.168-.94l-.383-.544a5.973,5.973,0,0,1,4.43-.946l1.195.2a8.725,8.725,0,0,0,4.5-.389l13.738-5a2.685,2.685,0,0,0,1.6-3.443ZM30.8,7.342h7.383a.671.671,0,0,1,.671.671v2.013H30.8Zm-5.369,0h4.027v5.765l-1.537-1.544a.677.677,0,0,0-.953,0l-1.537,1.544Zm-9.4.671a.671.671,0,0,1,.671-.671H24.09v2.685H16.036Zm0,3.356H24.09v3.356a.662.662,0,0,0,.416.617.671.671,0,0,0,.732-.141l2.208-2.215L29.654,15.2a.676.676,0,0,0,.477.195.562.562,0,0,0,.255-.054.662.662,0,0,0,.416-.617V11.369h8.054V26.477a2.582,2.582,0,0,0-.631.134l-2.376.866H31.13a2.6,2.6,0,0,0-1.242-.584L23.143,25.7a14.089,14.089,0,0,0-6.537.389l-.121.04c-.154.04-.3.1-.45.154ZM9.586,42.41l-6.154-8.8,5.5-3.852,6.154,8.8Zm30.879-13.04A1.342,1.342,0,0,1,39.6,30.4l-13.738,5a7.375,7.375,0,0,1-3.812.329l-1.2-.2a7.3,7.3,0,0,0-5.43,1.168l-4.235-6.054,2.107-1.47a12.483,12.483,0,0,1,3.564-1.745l.121-.034a12.916,12.916,0,0,1,5.94-.369l6.738,1.188a1.374,1.374,0,0,1,.872.557,1.35,1.35,0,0,1,.221.577,1.187,1.187,0,0,1-.034.564,1.348,1.348,0,0,1-1.537.953l-7.255-1.282-.228,1.315,7.248,1.282a2.3,2.3,0,0,0,.477.047A2.7,2.7,0,0,0,32,30.309l6.685-2.436a1.342,1.342,0,0,1,1.718.805,1.275,1.275,0,0,1,.067.691Z" transform="translate(-1.824 -6)" fill="#fff"/>
</svg>
