<svg id="global-distribution" xmlns="http://www.w3.org/2000/svg" width="40.105" height="40.105" viewBox="0 0 40.105 40.105">
  <path id="Path_176" data-name="Path 176" d="M145.164,20.565l-.451-1.085c-.371.154-.742.322-1.1.5l.516,1.055C144.466,20.868,144.815,20.71,145.164,20.565Z" transform="translate(-132.361 -17.954)" fill="#fff"/>
  <path id="Path_177" data-name="Path 177" d="M206.14,1.175A18.7,18.7,0,0,1,213.7,2.746l-1.034.385.41,1.1,2.785-1.037L214.81.362l-1.1.41.309.829A19.868,19.868,0,0,0,206.14,0,20.279,20.279,0,0,0,201.9.446l.246,1.149a19.1,19.1,0,0,1,3.991-.42Z" transform="translate(-186.087)" fill="#fff"/>
  <path id="Path_178" data-name="Path 178" d="M173.616,10.52,173.3,9.388c-.387.108-.776.229-1.156.36l.384,1.111C172.886,10.735,173.252,10.621,173.616,10.52Z" transform="translate(-158.661 -8.653)" fill="#fff"/>
  <path id="Path_179" data-name="Path 179" d="M349.828,472.543l.457,1.082c.37-.156.74-.326,1.1-.5l-.522-1.053C350.524,472.236,350.176,472.4,349.828,472.543Z" transform="translate(-322.426 -435.091)" fill="#fff"/>
  <path id="Path_180" data-name="Path 180" d="M322.412,483.724l.322,1.13c.387-.11.775-.234,1.154-.367l-.39-1.108C323.141,483.5,322.776,483.621,322.412,483.724Z" transform="translate(-297.157 -445.516)" fill="#fff"/>
  <path id="Path_181" data-name="Path 181" d="M142.038,461.95a18.707,18.707,0,0,1-7.45-1.52l.959-.357-.41-1.1-2.785,1.037,1.055,2.833,1.1-.41-.335-.9a19.874,19.874,0,0,0,7.864,1.594,20.269,20.269,0,0,0,4.35-.471l-.253-1.147A19.089,19.089,0,0,1,142.038,461.95Z" transform="translate(-121.986 -423.02)" fill="#fff"/>
  <path id="Path_182" data-name="Path 182" d="M11.146,323.168l-1.129.326c.111.386.236.774.371,1.152l1.107-.394C11.368,323.9,11.251,323.531,11.146,323.168Z" transform="translate(-9.232 -297.854)" fill="#fff"/>
  <path id="Path_183" data-name="Path 183" d="M20.375,351.011c.152.357.317.715.49,1.062l1.052-.524c-.163-.327-.318-.663-.461-1Z" transform="translate(-18.779 -323.091)" fill="#fff"/>
  <path id="Path_184" data-name="Path 184" d="M1.175,143.4a18.7,18.7,0,0,1,1.488-7.372l.372,1,1.1-.41L3.1,133.834.265,134.889l.41,1.1.866-.323A19.871,19.871,0,0,0,0,143.4a20.265,20.265,0,0,0,.485,4.414l1.147-.256a19.09,19.09,0,0,1-.456-4.158Z" transform="translate(0 -123.351)" fill="#fff"/>
  <path id="Path_185" data-name="Path 185" d="M474.048,144.3c-.139-.327-.289-.654-.446-.974l-1.055.518c.147.3.289.609.419.916Z" transform="translate(-435.533 -132.099)" fill="#fff"/>
  <path id="Path_186" data-name="Path 186" d="M483.526,171.634l1.129-.325c-.111-.386-.236-.774-.37-1.153l-1.107.393C483.3,170.906,483.422,171.271,483.526,171.634Z" transform="translate(-445.331 -156.829)" fill="#fff"/>
  <path id="Path_187" data-name="Path 187" d="M64.753,48.5A16.253,16.253,0,1,0,81.007,64.753,16.272,16.272,0,0,0,64.753,48.5ZM60.51,50.284a11.923,11.923,0,0,0-2.38,3.108A17.864,17.864,0,0,0,57.1,55.628,15.125,15.125,0,0,1,54.513,53.7,15.079,15.079,0,0,1,60.51,50.284Zm-6.828,4.245a16.292,16.292,0,0,0,3.021,2.23,26.32,26.32,0,0,0-1.17,7.408H49.687A15.021,15.021,0,0,1,53.682,54.529ZM49.687,65.341h5.845a25.994,25.994,0,0,0,1.331,7.891,16.274,16.274,0,0,0-2.891,2.052A15.028,15.028,0,0,1,49.687,65.341Zm5.141,10.754a15.1,15.1,0,0,1,2.455-1.751,17.491,17.491,0,0,0,.847,1.771,11.922,11.922,0,0,0,2.38,3.108,15.067,15.067,0,0,1-5.682-3.129Zm9.338,3.7c-1.868-.258-3.628-1.742-5.008-4.244a16.437,16.437,0,0,1-.829-1.748,15.021,15.021,0,0,1,5.837-1.42v7.412Zm0-8.588a16.2,16.2,0,0,0-6.246,1.49,24.892,24.892,0,0,1-1.212-7.352h7.458Zm0-7.038H56.708a25.244,25.244,0,0,1,1.052-6.854,16.162,16.162,0,0,0,6.406,1.561Zm0-6.469a14.986,14.986,0,0,1-6.025-1.507,16.856,16.856,0,0,1,1.017-2.231c1.38-2.5,3.14-3.986,5.008-4.244V57.7Zm15.653,6.469H73.975a26.318,26.318,0,0,0-1.17-7.408,16.294,16.294,0,0,0,3.021-2.23,15.021,15.021,0,0,1,3.994,9.637ZM74.994,53.7a15.126,15.126,0,0,1-2.586,1.931,17.865,17.865,0,0,0-1.031-2.236A11.922,11.922,0,0,0,69,50.284,15.077,15.077,0,0,1,74.994,53.7Zm-9.653-3.982c1.868.258,3.628,1.742,5.008,4.244a16.855,16.855,0,0,1,1.017,2.231A14.986,14.986,0,0,1,65.341,57.7V49.716Zm0,9.158a16.162,16.162,0,0,0,6.406-1.561A25.248,25.248,0,0,1,72.8,64.166H65.341Zm0,6.468H72.8a24.9,24.9,0,0,1-1.212,7.352,16.194,16.194,0,0,0-6.246-1.49V65.341Zm0,14.45V72.379a15.021,15.021,0,0,1,5.837,1.42,16.435,16.435,0,0,1-.829,1.748C68.969,78.049,67.209,79.534,65.341,79.791ZM69,79.223a11.923,11.923,0,0,0,2.38-3.108,17.474,17.474,0,0,0,.847-1.771,15.1,15.1,0,0,1,2.455,1.751A15.069,15.069,0,0,1,69,79.223Zm6.538-3.94a16.274,16.274,0,0,0-2.891-2.052,25.994,25.994,0,0,0,1.331-7.891h5.845A15.028,15.028,0,0,1,75.535,75.283Z" transform="translate(-44.701 -44.701)" fill="#fff"/>
  <path id="Path_188" data-name="Path 188" d="M461.578,211.978a19.877,19.877,0,0,0,1.54-7.733,20.259,20.259,0,0,0-.481-4.4l-1.147.255a19.084,19.084,0,0,1,.453,4.143,18.709,18.709,0,0,1-1.5,7.4l-.378-1.024-1.1.407,1.029,2.788,2.836-1.047-.407-1.1Z" transform="translate(-423.013 -184.192)" fill="#fff"/>
</svg>
