<svg xmlns="http://www.w3.org/2000/svg" width="40" height="40" viewBox="0 0 40 40">
  <path id="team" d="M40,16.774H38.55l-2.161,1.137a3.207,3.207,0,0,0-.769-.316l-2.718-.68v-.309a4.531,4.531,0,0,0,1.936-3.7V11.775A4.635,4.635,0,0,0,30.461,7.1c-.123,0-.243,0-.364.007l.7-1.65L27.385,2.041,25.371,3.351a10.913,10.913,0,0,0-2.415-1L22.458,0H17.542l-.5,2.35a10.9,10.9,0,0,0-2.415,1L12.615,2.041,9.2,5.455l.693,1.651c-.026,0-.052-.006-.078-.007a4.518,4.518,0,0,0-4.655,4.514V12.9A4.529,4.529,0,0,0,7.1,16.6v.31l-1.773.443L2.11,15.484H0V28.852l6.347,2.115H7.583l.154-.541,1.946,1.168a2.009,2.009,0,0,0,1.937,1.946,2.009,2.009,0,0,0,1.935,1.935,2.009,2.009,0,0,0,1.935,1.935,2.007,2.007,0,0,0,3.137,1.593l.571.5a1.964,1.964,0,0,0,1.3.49h.119a1.964,1.964,0,0,0,1.961-1.938,1.962,1.962,0,0,0,1.935-1.935,1.962,1.962,0,0,0,1.935-1.937,1.984,1.984,0,0,0,1.938-1.98,1.889,1.889,0,0,0-.01-.193L40,26.205Zm-6.452-5V12.9a3.238,3.238,0,0,1-1.615,2.792l-.323.186,0,2.042,3.223.805-7.095,3.734V20.724a3.21,3.21,0,0,0-.924-2.248l2.214-.553V15.88l-.322-.186A3.235,3.235,0,0,1,27.1,12.9v-1.29a3.226,3.226,0,0,1,3.326-3.224,3.336,3.336,0,0,1,3.126,3.386ZM20.973,21.955l-2.921-.933a7.967,7.967,0,0,0-4.134-.188l-.37.082v-.191a1.934,1.934,0,0,1,1.466-1.878l3.7-.923V15.88l-.322-.186a3.235,3.235,0,0,1-1.614-2.79v-1.29A3.226,3.226,0,0,1,20.1,8.389a3.336,3.336,0,0,1,3.126,3.386V12.9a3.238,3.238,0,0,1-1.615,2.792l-.323.186,0,2.042,3.695.923a1.934,1.934,0,0,1,1.466,1.878v2.417l-.159.084h-.4L21.93,22.092a4.067,4.067,0,0,0-.958-.137Zm-7.28-12.3A7.092,7.092,0,0,1,26.28,9.6a4.487,4.487,0,0,0-.474,2.009V12.9a4.529,4.529,0,0,0,1.935,3.7v.31l-2.581.646-2.581-.646v-.309a4.531,4.531,0,0,0,1.936-3.7V11.775A4.635,4.635,0,0,0,20.138,7.1a4.517,4.517,0,0,0-4.655,4.514V12.9a4.529,4.529,0,0,0,1.935,3.7v.31l-2.581.646-2.581-.646v-.309a4.531,4.531,0,0,0,1.936-3.7V11.775a4.755,4.755,0,0,0-.5-2.119Zm-2.967-3.9,2.061-2.061L14.6,4.874l.347-.213A9.627,9.627,0,0,1,17.742,3.5l.4-.1.449-2.117h2.825l.448,2.116.4.095A9.637,9.637,0,0,1,25.051,4.66l.347.213,1.814-1.181,2.059,2.059-.732,1.713a4.509,4.509,0,0,0-1.362.905c-.026.026-.049.054-.075.08a8.378,8.378,0,0,0-14.229.039A4.551,4.551,0,0,0,11.449,7.48ZM8.387,17.923V15.88l-.322-.186A3.235,3.235,0,0,1,6.451,12.9v-1.29A3.226,3.226,0,0,1,9.777,8.389,3.336,3.336,0,0,1,12.9,11.775V12.9a3.238,3.238,0,0,1-1.615,2.792l-.323.186,0,2.042,2.214.553a3.21,3.21,0,0,0-.924,2.248V21.2l-2.012.447.052-.183.025-1.192L6.92,18.29Zm-7.1-1.149h.47L6.4,19.48,4.059,28.845,1.29,27.922Zm5.266,12.9-1.27-.423,2.274-9.1,1.471.858V21.2L6.61,29.677Zm4.412,1.857a.728.728,0,0,1,.212-.512l1.134-1.134a.724.724,0,0,1,1.023,1.023L12.2,32.046a.724.724,0,0,1-1.235-.512ZM12.9,33.47a.728.728,0,0,1,.212-.512l1.134-1.134a.723.723,0,0,1,1.023,1.023l-1.134,1.134A.724.724,0,0,1,12.9,33.47Zm1.935,1.935a.728.728,0,0,1,.212-.512l1.134-1.134a.724.724,0,0,1,1.023,1.023l-1.134,1.134a.724.724,0,0,1-1.235-.512ZM17.5,38.064a.724.724,0,0,1-.512-1.235L18.12,35.7a.724.724,0,0,1,1.023,1.023l-1.134,1.134A.728.728,0,0,1,17.5,38.064Zm3.12.645H20.5a.669.669,0,0,1-.444-.169l-.483-.426.485-.485a2.006,2.006,0,0,0,.406-.6l.587.488a.673.673,0,0,1-.431,1.19ZM26.4,32.9h-.112a.692.692,0,0,1-.444-.161l-3.5-2.916-.827.992,3.4,2.831a.673.673,0,0,1-.432,1.19h-.141a.673.673,0,0,1-.43-.156l-3.5-2.92-.827.992,3.4,2.831a.672.672,0,0,1-.431,1.189,1.066,1.066,0,0,1-.679-.246l-1.44-1.2A2.007,2.007,0,0,0,18.7,34.2a2.009,2.009,0,0,0-1.935-1.935,2.009,2.009,0,0,0-1.935-1.935,2.009,2.009,0,0,0-3.43-1.353l-1.134,1.134a1.988,1.988,0,0,0-.181.221L8.1,29.142l1.737-6.081,4.355-.968a6.646,6.646,0,0,1,3.461.157l.95.3-3.222,1.611A2.151,2.151,0,0,0,14.193,26.1v.128a2.161,2.161,0,0,0,3.273,1.853l2.4-1.441a1.332,1.332,0,0,1,1.547.149l5.451,4.906A.694.694,0,0,1,26.4,32.9Zm12.307-7.5L27.84,30.843c-.035-.037-.072-.073-.111-.108l-5.45-4.906a2.6,2.6,0,0,0-3.075-.3l-2.4,1.441a.87.87,0,0,1-1.317-.747V26.1a.866.866,0,0,1,.481-.779l3.6-1.8a2.8,2.8,0,0,1,2.011-.186l4.054,1.158.982.025,12.1-6.368Zm0,0" transform="translate(0)" fill="#fff"/>
</svg>
