<svg id="group" xmlns="http://www.w3.org/2000/svg" width="40" height="40" viewBox="0 0 40 40">
  <g id="Group_85" data-name="Group 85" transform="translate(19.172 38.384)">
    <g id="Group_84" data-name="Group 84">
      <path id="Path_159" data-name="Path 159" d="M247.119,492.237a.808.808,0,1,0,.237.571A.814.814,0,0,0,247.119,492.237Z" transform="translate(-245.74 -492)" fill="#fff"/>
    </g>
  </g>
  <g id="Group_87" data-name="Group 87" transform="translate(0 8.521)">
    <g id="Group_86" data-name="Group 86">
      <path id="Path_160" data-name="Path 160" d="M35.825,122.6l-2.606-.617v-1.025a5.1,5.1,0,0,0,2.41-4.322v-2.885a5.163,5.163,0,0,0-9.014-3.386,6.879,6.879,0,0,0-6.607-4.926h0a6.879,6.879,0,0,0-6.611,4.94,5.163,5.163,0,0,0-9.026,3.372v2.885a5.1,5.1,0,0,0,2.41,4.322v1.025l-2.606.617A5.383,5.383,0,0,0,0,127.84v5.2a.778.778,0,0,0,.781.774H7.028v2.323a.778.778,0,0,0,.781.774H16.38a.774.774,0,1,0,0-1.549H12.892V131.96a.781.781,0,0,0-1.562,0v3.408H8.591v-3.493a5.647,5.647,0,0,1,4.376-5.5l3.842-.913,2.472,5.574A.781.781,0,0,0,20,131.5h0a.782.782,0,0,0,.715-.463l2.47-5.566,3.831.907a5.647,5.647,0,0,1,4.38,5.5v.864a.769.769,0,0,0,0,.606v2.02H28.67V131.96a.781.781,0,0,0-1.562,0v3.408H23.281a.774.774,0,1,0,0,1.549h8.893a.778.778,0,0,0,.781-.774v-2.323h6.263a.778.778,0,0,0,.781-.774v-5.2A5.383,5.383,0,0,0,35.825,122.6Zm-5.353-12.411a3.582,3.582,0,0,1,3.594,3.562v.27H31.832a9.72,9.72,0,0,1-4.808-1.272A3.6,3.6,0,0,1,30.472,110.187Zm-3.594,6.321c0-.079,0-2.082,0-2.082a11.3,11.3,0,0,0,4.949,1.141h2.235v1.067a3.594,3.594,0,0,1-7.188,0v-.126ZM14.7,112.251a5.313,5.313,0,0,1,10.625,0v.1l-2.9-1.688a.786.786,0,0,0-.995.17,5.922,5.922,0,0,1-4.533,2.1H14.7Zm-8.762,1.69v-.192a3.6,3.6,0,0,1,7.043-1,9.721,9.721,0,0,1-4.808,1.272H5.934Zm0,2.694v-1.067H8.168a11.3,11.3,0,0,0,4.953-1.143v2.21a3.594,3.594,0,0,1-7.188,0Zm1.095,15.24v.4H4.688v-3.44a.781.781,0,0,0-1.562,0v3.44H1.563v-4.43A3.836,3.836,0,0,1,4.538,124.1l2.476-.586,1.616,3.837A7.148,7.148,0,0,0,7.028,131.874Zm2.5-6.41-1.186-2.817c0-.019,0-.037,0-.056v-.985a5.167,5.167,0,0,0,2.363,0v.935c0,.015,0,.029,0,.044s0,.049,0,.073Zm3.075-.595a7.389,7.389,0,0,0-1.321.45l.761-1.806,2.477.588a3.9,3.9,0,0,1,.56.179Zm3.878-1.614a5.452,5.452,0,0,0-1.6-.66l-2.615-.621v-1.015a5.171,5.171,0,0,0,1.615-1.6,6.888,6.888,0,0,0,2.6,2.752Zm5.467,1.149L20,128.8,18.043,124.4v-1.6a6.94,6.94,0,0,0,3.9.007v1.6Zm-1.94-2.87A5.3,5.3,0,0,1,14.7,116.27v-1.791h2.2a7.49,7.49,0,0,0,5.28-2.163l3.142,1.83v2.306A5.3,5.3,0,0,1,20.008,121.535Zm3.5.6h0a6.888,6.888,0,0,0,2.615-2.753,5.174,5.174,0,0,0,1.606,1.582v1.015l-2.615.621a5.453,5.453,0,0,0-1.606.665v-1.13Zm3.866,2.741-2.471-.585a3.9,3.9,0,0,1,.575-.185l2.471-.587.764,1.814A7.39,7.39,0,0,0,27.376,124.872Zm1.913-2.2a.767.767,0,0,0,.005-.085c0-.007,0-.014,0-.022v-.956a5.166,5.166,0,0,0,2.363,0v.985c0,.014,0,.028,0,.042l-1.193,2.831Zm9.149,9.6H36.875v-3.44a.781.781,0,0,0-1.562,0v3.44H32.956v-.393a7.148,7.148,0,0,0-1.6-4.514l1.621-3.848,2.482.588a3.836,3.836,0,0,1,2.976,3.736Z" transform="translate(0 -105.437)" fill="#fff"/>
    </g>
  </g>
  <g id="Group_89" data-name="Group 89" transform="translate(16.575 18.041)">
    <g id="Group_88" data-name="Group 88">
      <path id="Path_161" data-name="Path 161" d="M213.839,231.487a.808.808,0,1,0,.237.571A.814.814,0,0,0,213.839,231.487Z" transform="translate(-212.46 -231.25)" fill="#fff"/>
    </g>
  </g>
  <g id="Group_91" data-name="Group 91" transform="translate(21.792 18.041)">
    <g id="Group_90" data-name="Group 90">
      <path id="Path_162" data-name="Path 162" d="M280.709,231.487a.808.808,0,1,0,.237.571A.814.814,0,0,0,280.709,231.487Z" transform="translate(-279.33 -231.25)" fill="#fff"/>
    </g>
  </g>
  <g id="Group_93" data-name="Group 93" transform="translate(18.167 20.66)">
    <g id="Group_92" data-name="Group 92">
      <path id="Path_163" data-name="Path 163" d="M236.7,265.15a.808.808,0,0,0-1.143,0,.614.614,0,0,1-.867,0,.808.808,0,0,0-1.143,1.143,2.232,2.232,0,0,0,3.153,0A.808.808,0,0,0,236.7,265.15Z" transform="translate(-233.307 -264.913)" fill="#fff"/>
    </g>
  </g>
  <g id="Group_95" data-name="Group 95" transform="translate(30.927 4.364)">
    <g id="Group_94" data-name="Group 94">
      <path id="Path_164" data-name="Path 164" d="M397.982,54h-.554a.808.808,0,1,0,0,1.616h.554a.808.808,0,0,0,0-1.616Z" transform="translate(-396.62 -54)" fill="#fff"/>
    </g>
  </g>
  <g id="Group_97" data-name="Group 97" transform="translate(34.597 4.364)">
    <g id="Group_96" data-name="Group 96">
      <path id="Path_165" data-name="Path 165" d="M446.5,54h-.554a.808.808,0,0,0,0,1.616h.554a.808.808,0,0,0,0-1.616Z" transform="translate(-445.141 -54)" fill="#fff"/>
    </g>
  </g>
  <g id="Group_99" data-name="Group 99" transform="translate(32.913 6.047)">
    <g id="Group_98" data-name="Group 98">
      <path id="Path_166" data-name="Path 166" d="M425.119,74.831a.808.808,0,0,0-.808.808v.554a.808.808,0,1,0,1.616,0v-.554A.808.808,0,0,0,425.119,74.831Z" transform="translate(-424.311 -74.831)" fill="#fff"/>
    </g>
  </g>
  <g id="Group_101" data-name="Group 101" transform="translate(32.913 2.126)">
    <g id="Group_100" data-name="Group 100">
      <path id="Path_167" data-name="Path 167" d="M425.119,26.31a.808.808,0,0,0-.808.808v.554a.808.808,0,1,0,1.616,0v-.554A.808.808,0,0,0,425.119,26.31Z" transform="translate(-424.311 -26.31)" fill="#fff"/>
    </g>
  </g>
  <g id="Group_103" data-name="Group 103" transform="translate(3.188 4.364)">
    <g id="Group_102" data-name="Group 102">
      <path id="Path_168" data-name="Path 168" d="M40.806,54h-.554a.808.808,0,0,0,0,1.616h.554a.808.808,0,1,0,0-1.616Z" transform="translate(-39.444 -54)" fill="#fff"/>
    </g>
  </g>
  <g id="Group_105" data-name="Group 105" transform="translate(6.859 4.364)">
    <g id="Group_104" data-name="Group 104">
      <path id="Path_169" data-name="Path 169" d="M89.327,54h-.554a.808.808,0,0,0,0,1.616h.554a.808.808,0,0,0,0-1.616Z" transform="translate(-87.965 -54)" fill="#fff"/>
    </g>
  </g>
  <g id="Group_107" data-name="Group 107" transform="translate(5.425 6.047)">
    <g id="Group_106" data-name="Group 106">
      <path id="Path_170" data-name="Path 170" d="M67.942,74.831a.808.808,0,0,0-.808.808v.554a.808.808,0,0,0,1.616,0v-.554A.808.808,0,0,0,67.942,74.831Z" transform="translate(-67.134 -74.831)" fill="#fff"/>
    </g>
  </g>
  <g id="Group_109" data-name="Group 109" transform="translate(5.425 2.126)">
    <g id="Group_108" data-name="Group 108">
      <path id="Path_171" data-name="Path 171" d="M67.942,26.31a.808.808,0,0,0-.808.808v.554a.808.808,0,0,0,1.616,0v-.554A.808.808,0,0,0,67.942,26.31Z" transform="translate(-67.134 -26.31)" fill="#fff"/>
    </g>
  </g>
  <g id="Group_111" data-name="Group 111" transform="translate(19.192 3.078)">
    <g id="Group_110" data-name="Group 110">
      <path id="Path_172" data-name="Path 172" d="M246.808,38.087A.808.808,0,0,0,246,38.9v2.126a.808.808,0,1,0,1.616,0V38.9A.808.808,0,0,0,246.808,38.087Z" transform="translate(-246 -38.087)" fill="#fff"/>
    </g>
  </g>
  <g id="Group_113" data-name="Group 113" transform="translate(19.192)">
    <g id="Group_112" data-name="Group 112">
      <path id="Path_173" data-name="Path 173" d="M247.379.237A.808.808,0,0,0,246,.808a.808.808,0,1,0,1.379-.571Z" transform="translate(-246)" fill="#fff"/>
    </g>
  </g>
  <g id="Group_115" data-name="Group 115" transform="translate(14.748 1.823)">
    <g id="Group_114" data-name="Group 114">
      <path id="Path_174" data-name="Path 174" d="M191.812,23.976l-1.183-1.183a.808.808,0,0,0-1.143,1.143l1.183,1.183a.808.808,0,0,0,1.143-1.143Z" transform="translate(-189.249 -22.556)" fill="#fff"/>
    </g>
  </g>
  <g id="Group_117" data-name="Group 117" transform="translate(22.414 1.778)">
    <g id="Group_116" data-name="Group 116">
      <path id="Path_175" data-name="Path 175" d="M290.227,22.243a.808.808,0,0,0-1.143,0l-1.222,1.222A.808.808,0,0,0,289,24.608l1.222-1.222A.808.808,0,0,0,290.227,22.243Z" transform="translate(-287.625 -22.006)" fill="#fff"/>
    </g>
  </g>
</svg>
